<?xml version="1.0" standalone="no"?>
<!DOCTYPE svg PUBLIC "-//W3C//DTD SVG 20010904//EN"
 "http://www.w3.org/TR/2001/REC-SVG-20010904/DTD/svg10.dtd">
<svg version="1.0" xmlns="http://www.w3.org/2000/svg"
 width="564.000000pt" height="476.000000pt" viewBox="0 0 564.000000 476.000000"
 preserveAspectRatio="xMidYMid meet">
<metadata>
Created by potrace 1.16, written by Peter Selinger 2001-2019
</metadata>
<g transform="translate(0.000000,476.000000) scale(0.100000,-0.100000)"
fill="#000000" stroke="none">
<path d="M3285 4506 c-22 -7 -59 -22 -81 -34 -54 -27 -869 -842 -896 -896 -86
-168 5 -401 192 -490 59 -28 74 -31 165 -31 86 0 106 3 145 24 29 15 185 164
435 414 214 214 410 403 435 419 126 81 325 91 463 22 26 -13 47 -20 47 -16 0
4 -118 125 -262 268 -272 269 -303 293 -413 323 -53 14 -180 13 -230 -3z"/>
<path d="M4045 3807 c-22 -8 -51 -19 -65 -26 -14 -8 -207 -195 -430 -416 -366
-364 -411 -406 -471 -434 -123 -57 -284 -60 -407 -5 -30 13 -56 23 -58 21 -1
-1 114 -119 256 -263 222 -224 267 -264 321 -290 136 -66 264 -69 386 -9 62
30 106 71 484 451 229 231 425 434 434 453 59 118 25 298 -79 409 -88 94 -262
145 -371 109z"/>
<path d="M244 2089 c-11 -18 -4 -1492 7 -1533 29 -108 113 -206 217 -254 80
-37 220 -61 234 -39 4 6 8 332 8 722 0 754 -2 792 -48 882 -47 91 -162 184
-257 208 -51 13 -156 22 -161 14z"/>
<path d="M1827 2090 c-314 -35 -604 -245 -743 -538 -97 -204 -104 -495 -18
-714 63 -162 201 -328 361 -434 90 -60 167 -95 282 -126 71 -20 109 -21 619
-25 l543 -5 -3 554 -3 553 -29 85 c-57 171 -119 268 -256 400 -196 190 -470
281 -753 250z m268 -471 c76 -28 136 -70 187 -130 104 -123 118 -183 118 -527
l0 -264 -282 4 c-315 4 -331 7 -443 82 -54 36 -135 134 -161 195 -99 233 0
512 221 621 103 52 252 59 360 19z"/>
<path d="M4760 2089 c-210 -23 -377 -101 -534 -249 -145 -137 -226 -276 -273
-472 -16 -65 -18 -130 -18 -593 l0 -520 60 3 c168 9 307 99 373 240 l27 57 6
355 c4 236 10 368 19 395 45 149 179 283 325 327 16 5 114 13 216 17 l186 8
74 39 c126 68 195 178 206 332 l6 72 -299 -1 c-164 -1 -333 -5 -374 -10z"/>
<path d="M3160 1383 c0 -444 4 -732 11 -773 30 -191 174 -325 373 -350 43 -5
82 -7 87 -4 11 7 11 1304 0 1441 -10 118 -35 182 -100 255 -74 83 -199 138
-313 138 l-58 0 0 -707z"/>
<path d="M4666 1385 c-149 -53 -193 -256 -80 -368 60 -60 69 -62 314 -62 211
0 229 2 282 23 67 27 157 105 193 166 29 51 55 149 55 210 l0 46 -362 0 c-283
-1 -372 -4 -402 -15z"/>
</g>
</svg>
